<svg xmlns="http://www.w3.org/2000/svg" viewBox="0 0 1633.5 336.22"><defs><style>.cls-1,.cls-2{fill:#eb5346;}.cls-2{fill-rule:evenodd;}.cls-3{fill:none;stroke:#eb5346;stroke-miterlimit:10;stroke-width:4px;}</style></defs><title>Asset 1</title><g id="Layer_2" data-name="Layer 2"><g id="Слой_2" data-name="Слой 2"><path class="cls-1" d="M180.21,29.92a43.27,43.27,0,0,0-10.75-11.63c-12.27-9-28-12.11-42.85-13.78A233.92,233.92,0,0,0,93,3.59c-9.26.3-19.46.85-26.63,7.51a22.42,22.42,0,0,0-2,2.11C59.29,19.38,59.12,26.14,58,33.59c-.55,3.55-.9,8.65-2.67,11.84-1.15,2.07-6,7.14-12.44,6.45a15.44,15.44,0,0,1-11.29-6.45c-.86-1.37-8.48-27.37-12.32-40.58a1,1,0,0,0-1.88.3c.3,8.66.59,21.38-.32,21.38h-.42a1,1,0,0,0-1,1v7.3a1,1,0,0,1-1,1H1a1,1,0,0,0-1,1v4.06a1,1,0,0,0,1,1c3.51,0,15.32-.18,14.93,0s-1.61,12,.69,18.66c1.56,4.51,2.9,8,3.61,9.74a1,1,0,0,1-.89,1.31H7.66A5.16,5.16,0,0,0,2.5,76.82L2.79,85a5.45,5.45,0,0,0,5.74,5.25l20.33-1.07a1,1,0,0,1,.69.25,15.9,15.9,0,0,0,10.67,4.11H72.14a23.32,23.32,0,0,0,10.79-2.65,1,1,0,0,1,.48-.11c15.37.67,30.78,1.25,46.15.22,11.61-.78,23.48-1.73,34.54-5.59,7.9-2.76,15.17-7.57,19.21-15.08C190.16,57.65,187.75,41.77,180.21,29.92Zm-6.52,42.81c-4.66,4.64-11.13,6.42-17.43,7.5-13.4,2.3-26.79,1.94-40.32,2.23-7.68.16-15.37.18-23.05-.13-4.78-.19-9.49-.67-14.27-.81-2.46-.07-5.11-.59-6.8-2.45a10.77,10.77,0,0,1-2-3.7C67.59,69,66.74,62.32,66.23,55.6a86.39,86.39,0,0,1,2.4-28.36,43.81,43.81,0,0,1,4.15-9.52,12.78,12.78,0,0,1,4.84-5c6.91-4.05,16.54-3.41,24.26-3.52,11.24-.17,22.55.2,33.63,2.2,10.05,1.82,21,4.93,29.41,10.95C178.4,32,185.5,52.15,177.49,67.52a21.24,21.24,0,0,1-3,4.4Q174.08,72.34,173.69,72.73Z"/></g><g id="Слой_6" data-name="Слой 6"><path class="cls-2" d="M1259.66,62.82V36.17l2.24-1.94c-6,.71-12,1.5-18.05,2.29a31,31,0,0,0-8.72,2l-.43.2c-4.19,2.06-6.89,6.22-6.74,10.39s2.83,7.18,6.5,9.56c3.45,2.23,7.94,3.26,12.1,4.16a99.27,99.27,0,0,0,14.13,1.92l1.16.07Z"/><path class="cls-2" d="M1419.66,45.12c-.22-3.63-3-6.86-6.59-8.8s-7.75-2.76-11.9-3.27a91.89,91.89,0,0,0-18.22-.39c-1.95.15-4,.41-5.51,1.5a13.45,13.45,0,0,1-2.09,1.58,6.73,6.73,0,0,1-2.57.44l-27.39,1.06c-10.93.42-21.87.85-32.81.53-5.82-.17-11.84-.6-16.93-3-1.92-.92-3.72-2.13-5.86-2.56-3.43-.69-7,0-10.47.34-4,.36-7.93.69-11.88,1.12l-3.1.34-2.62,2.11V62.71l2.75,2.26c8.3.34,16.62,0,24.91-.39a11.71,11.71,0,0,0,4.43-.78c1.51-.71,2.5-2,3.77-3,3.36-2.63,8.27-3,12.79-3.13,21.13-.79,42.23-.84,63.38-.84,1.11,0,2.91-.25,3.82.49.6.48.64,1.29,1.06,1.89.87,1.26,2.94,1.25,4.63,1.08l13.29-1.3c5.16-.5,10.46-1,15-3.17S1419.94,49.62,1419.66,45.12Zm-140.41,10c-3.37,0-6.1-2.37-6.1-5.29s2.73-5.29,6.1-5.29,6.1,2.37,6.1,5.29S1282.62,55.09,1279.25,55.09Z"/></g><g id="Слой_5" data-name="Слой 5"><path class="cls-1" d="M488.35,12.25l-6,13.51S454.21,35,415.77,36.68a22.34,22.34,0,0,1-5.3,2.59c-3.31,1.15-42.08,0-42.08,0s-38.76,1.15-42.08,0a22.34,22.34,0,0,1-5.3-2.59C282.56,35,254.38,25.76,254.38,25.76l-6-13.51-2.32,13.8s.66,22.71,2.32,27.3,5,4,5.3,6.32S256,70.6,266.31,75.2c8.33,3.73,70.29,7.84,93.4,9.26a141.45,141.45,0,0,0,17.33,0c23.12-1.42,85.07-5.53,93.4-9.26,10.28-4.6,12.26-13.22,12.6-15.52s3.65-1.72,5.3-6.32,2.32-27.3,2.32-27.3ZM301.14,75.36l-25.51-2.67a1.86,1.86,0,0,1-1.16-.55L269,66.31c-1-1.1.06-2.73,1.67-2.48l27.42,4.08a1.82,1.82,0,0,1,1.15.63L302.8,73C303.69,74,302.67,75.52,301.14,75.36Zm53.34-4.18v2.59L318.35,71.6,315,69.45C316,69.45,354.48,71.17,354.48,71.17Zm.61,7.35L319,76.37l-3.31-2.16c1,0,39.44,1.72,39.44,1.72Zm62.71-2.16-36.13,2.16V75.94s38.45-1.72,39.44-1.72Zm.61-4.76-36.13,2.16V71.17s38.45-1.72,39.44-1.72Zm49.37-5.3-5.5,5.83a1.86,1.86,0,0,1-1.16.55l-25.51,2.67C434.1,75.52,433.08,74,434,73l3.58-4.42a1.82,1.82,0,0,1,1.15-.63l27.42-4.08C467.73,63.58,468.82,65.21,467.79,66.31Z"/><path class="cls-1" d="M765.49,11.92l-6,13.63s-28.43,9.28-67.23,11a22.55,22.55,0,0,1-5.35,2.61c-3.34,1.16-42.46,0-42.46,0s-39.12,1.16-42.46,0a22.55,22.55,0,0,1-5.35-2.61c-38.8-1.74-67.23-11-67.23-11l-6-13.63L521,25.85s.67,22.91,2.34,27.55,5,4.06,5.35,6.38,2.34,11,12.71,15.66c8.41,3.76,70.93,7.91,94.26,9.34a142.73,142.73,0,0,0,17.49,0c23.33-1.43,85.85-5.58,94.26-9.34,10.37-4.64,12.38-13.34,12.71-15.66s3.68-1.74,5.35-6.38,2.34-27.55,2.34-27.55ZM755.28,46a2.55,2.55,0,0,1-2.12,2.45L694,58.62a2.55,2.55,0,0,1-.42,0l-95,.3a2.55,2.55,0,0,1-.53-.05L537.81,46.42a2.55,2.55,0,0,1-2-2.55v-.21a2.55,2.55,0,0,1,3-2.44l58.56,11.49a2.54,2.54,0,0,0,.49,0l94.79-.1a2.54,2.54,0,0,0,.4,0L752.33,43a2.55,2.55,0,0,1,3,2.57Z"/></g><g id="Слой_4" data-name="Слой 4"><path class="cls-1" d="M1177,53.45c-2.64,0-9.1-3.83-9.1-3.83s-5.46-12.17-6.5-14,10.92-2.93,8.68-4.28S1073,12.2,1063.09,10.92,1034,6.34,1034,6.34l-16.9,2.25c8.06,18.48,1.82,76,1.82,76l1.3,5.18,10.66.9.84,0q-.06-1.18-.06-2.38c0-27.84,25.6-50.41,57.19-50.41s57,22.4,57.19,50.1h0s1.3.45,11.18,0a46.15,46.15,0,0,0,16.12-3.38S1179.6,53.45,1177,53.45ZM1036.32,27.52h-13V23.47h13Z"/><path class="cls-1" d="M1444.06,42.21l9.71-2.25,25.11-5.83,34.5-8,37.88-8.79,35.24-8.17c7.33-1.7,14.69-3.33,22-5.15,5.06-1.26,10.06-2.78,15.21-3.65,4.75-.8,8.31-.79,9.21,4.72,2.53,15.45-3.53,32.2-7.34,47-1.1,4.26-2.23,8.51-3.34,12.76-1,3.79-1.78,7.79-4.6,10.71-3.11,3.23-7.1,3.33-11.23,4-3.5.61-7,1.35-10.49,2q-12,2.09-24,4c-16,2.57-32,4.94-48,7.24-9.75,1.4-19.65,2.38-29.35,4.14L1593,79.16c6.45-1.17,13.51-2.69,17.52-7.88a26.38,26.38,0,0,0,3.36-6.62c5.94-15.13,11.42-30.54,14.26-46.55.62-3.5,1-7.39-.91-10.36-2.93-4.46-8.92-4.32-13.49-3.08-14,3.78-28.13,6.52-42.26,9.62l-31.19,6.83-32.27,7.07-29.34,6.43-22.42,4.91-11.51,2.52Z"/><path class="cls-1" d="M1578.68,15,1613,7.53a3.37,3.37,0,0,1,4,3.88c-2.25,12.61-8.67,45.53-15.59,53.5-8.61,9.92-11,8.87-19.57,11.22-8.35,2.28-75.13,11.43-79.14,12l-.39,0c-1.28,0-8.23,0-11.54-2.09l-.11-.07a3.37,3.37,0,0,1,.83-6c16.51-5.29,67.12-21.57,69.74-22.88,2.88-1.44,13.71-28.5,14.82-39.12A3.36,3.36,0,0,1,1578.68,15Z"/><polygon class="cls-1" points="1566.05 20.93 1467.21 42.85 1566.05 25.24 1566.05 20.93"/><polygon class="cls-1" points="1564.09 31.89 1465.25 53.81 1564.09 36.2 1564.09 31.89"/><polygon class="cls-1" points="1561.29 42.85 1486.78 59.38 1561.29 46.1 1561.29 42.85"/><path class="cls-1" d="M215.06,171.31c-23.61,15.15-60.37,24.89-101.67,24.89s-78.06-9.74-101.67-24.89v94.08a39.06,39.06,0,0,0,14,30c6.58,5.48,13.44,11.19,19.74,16.42A58.32,58.32,0,0,0,80,325.19l-.23-2.77C77.61,303,66.6,221,66.6,221h4.75l8.41,101.42c.13,1.16.23,2.1.29,2.78.9,0,1.8.07,2.7.07H143a61.06,61.06,0,0,0,7.17-.43l.1-1,8.41-101.42h4.75s-11,82-13.16,101.42l-.08.95A61,61,0,0,0,182,311.2l15.66-13a48.27,48.27,0,0,0,17.38-37.09C215.06,228.27,215.06,171.31,215.06,171.31Z"/><path class="cls-1" d="M823,11.39c3.7.63,19.69,3.35,28.57,4.49,3.19.41,16.75,2.81,35.06,6.21V33.37a69.86,69.86,0,0,0-8.69-.54c-33.17,0-60.36,23.26-62.1,52.44l-2.54-.22-.22-.86c.35-3.43,1.56-16,2-30.53.6-18.13-.19-31.84-2.36-40.91L823,11.39m.09-5.06-16.9,2.25c8.06,18.48,1.82,76,1.82,76l1.3,5.18,10.66.9.84,0q-.06-1.18-.06-2.38c0-27.84,25.6-50.41,57.19-50.41a64.63,64.63,0,0,1,13.69,1.46V17.93c-19-3.54-35.6-6.52-39.42-7-9.88-1.27-29.11-4.59-29.11-4.59Z"/><rect class="cls-1" x="812.45" y="23.47" width="13" height="4.06"/><path class="cls-1" d="M966.08,53.45c-2.64,0-9.1-3.83-9.1-3.83s-5.46-12.17-6.5-14,10.92-2.93,8.68-4.28c-1.37-.83-37.47-7.83-67.52-13.42V39.29c24.86,5.39,43.34,25.09,43.5,48.64h0s1.3.45,11.18,0a46.15,46.15,0,0,0,16.12-3.38S968.73,53.45,966.08,53.45Z"/><path class="cls-3" d="M458.06,173.55c-23.61,15.15-60.37,24.89-101.67,24.89s-78.06-9.74-101.67-24.89v94.08a39.06,39.06,0,0,0,14,30c6.58,5.48,13.44,11.19,19.74,16.42A58.32,58.32,0,0,0,323,327.43l-.23-2.77h0c.13,1.16.23,2.1.29,2.78.9,0,1.8.07,2.7.07H386a61.06,61.06,0,0,0,7.17-.43l.1-1h0l-.08.95A61,61,0,0,0,425,313.43l15.66-13a48.27,48.27,0,0,0,17.38-37.09C458.06,230.51,458.06,173.55,458.06,173.55Z"/><path class="cls-1" d="M317.56,261.84l5.21,62.82c.13,1.16.23,2.1.29,2.78.9,0,1.8.07,2.7.07H386a61.06,61.06,0,0,0,7.17-.43l.1-1,5.33-64.28Z"/><path class="cls-1" d="M254.72,261.84v5.79a39.06,39.06,0,0,0,14,30c6.58,5.48,13.44,11.19,19.74,16.42A58.32,58.32,0,0,0,323,327.43l-.23-2.77c-1.16-10.38-4.85-38.73-8-62.82Z"/><path class="cls-1" d="M401.53,261.84c-3.22,24.4-7,53.69-8.22,64.28l-.08.95A61,61,0,0,0,425,313.43l15.66-13a48.27,48.27,0,0,0,17.38-37.09v-1.48Z"/><path class="cls-1" d="M680.37,197c-9.58-.49-10.31,13.51-10.31,13.51l-.22,6.38,36.07,12S689.95,197.51,680.37,197Z"/><circle class="cls-1" cx="594.92" cy="239.25" r="9.09"/><path class="cls-1" d="M584.36,235.2a9.09,9.09,0,0,1,9.54-5.82l.1-.26-7.47-2.82a9.09,9.09,0,0,0-6.41,17l7.47,2.82.1-.26A9.09,9.09,0,0,1,584.36,235.2Z"/><path class="cls-1" d="M674.25,258.65a7.08,7.08,0,0,1,7.44-4.54l.08-.2-5.82-2.19a7.08,7.08,0,0,0-9.12,4.13h0a7.08,7.08,0,0,0,4.13,9.12l5.82,2.19.08-.2A7.08,7.08,0,0,1,674.25,258.65Z"/><circle class="cls-1" cx="682.31" cy="261.96" r="6.73"/><path class="cls-1" d="M820.82,288.85c-2.24-1.89-23.3-13.21-47.73-25.68V262h-1.55v.42c-26.11-13.3-55.65-27.69-70.06-33.2C673.25,218.38,573.8,196,562.75,194.81c-17.27-1.92-34.59-6.65-51.46-10.7a2.9,2.9,0,0,0-1.5-.09c-2.72.82-1.11,10-1.06,12,.2,7.15,4.35,15.17,6.78,21.74,4,10.91,8.35,21.73,12.71,32.52q2.67,6.62,5.41,13.23c.23.55,2.7,5.19,2.36,5.69l-3.58,5.16c-1.15,1.66-2.53,3.22-3.79,4.8a4.51,4.51,0,0,0-1.19,2.69c0,1.8,3.23,3.5,4.47,4.49,2.64,2.11,5.63,5.22,8.79,6.29a38.76,38.76,0,0,0,11.64,1.51c9.31,0,16.37,3.19,24.17,8.21,17.92,11.54,71,11.54,71,11.54l57.95,3.19,2.7-1.47,5.65,1.47,66.05-1.72s10.07-1,15.22-2.44c4.6-1.3,9.59-.41,14.24,0l1.69-2.18c-.26.34,4.9,1.77,5.36,1.82a13,13,0,0,0,6.06-.89c3.28-1.33,8-4.68,8.75-8.34C832.12,298.43,825.49,292.78,820.82,288.85Zm-90.58-18.94V296.2a19.84,19.84,0,0,1-2.58-3.58V273.5A19.84,19.84,0,0,1,730.24,269.92Zm1.55-1.54a20.2,20.2,0,0,1,2.58-1.94v33.24a20.2,20.2,0,0,1-2.58-1.94Zm4.13-2.83a20.22,20.22,0,0,1,2.58-1.12v37.26a20.22,20.22,0,0,1-2.58-1.12ZM740,264a20.37,20.37,0,0,1,2.58-.51v39.22a20.37,20.37,0,0,1-2.58-.51Zm12.39.6a20.22,20.22,0,0,1,2.58,1.17V300.4a20.22,20.22,0,0,1-2.58,1.17Zm-1.55,37.52a20.33,20.33,0,0,1-2.58.56V263.49a20.33,20.33,0,0,1,2.58.56Zm5.68-35.42a20.18,20.18,0,0,1,2.58,2v28.73a20.18,20.18,0,0,1-2.58,2Zm4.13,3.65a19.79,19.79,0,0,1,2.58,3.83V292a19.79,19.79,0,0,1-2.58,3.83ZM595.29,287.63c-22.17,0-40.15-17-40.15-38.06s18-38.06,40.15-38.06c16.1,0,30,9,36.39,22a50.52,50.52,0,0,0-1.41,9.7,34.61,34.61,0,0,0,3.5,17.3C628.82,276.17,613.47,287.63,595.29,287.63Zm88.83,15a34.25,34.25,0,1,1,31-47.33l-.14.11c-5.47,4.1-7.25,11.22-6.74,17.76a25.33,25.33,0,0,0,2.34,9.38,20.72,20.72,0,0,0,2.23,3.4A34.34,34.34,0,0,1,684.12,302.67Zm42-25.65v12.07a19.5,19.5,0,0,1,0-12.07Zm18.07,25.79V263.3c.37,0,.75,0,1.12,0s1,0,1.46.06v39.47c-.48,0-1,.06-1.46.06S744.55,302.84,744.18,302.82Zm20.65-14.88v-9.77a19.55,19.55,0,0,1,0,9.77Z"/><path class="cls-1" d="M1110.64,223c-1.51-6.93,5.38-50.22,7.51-63.26A3.17,3.17,0,0,0,1115,156c-18.79.17-102.09,1.13-121.35,5.28-20,4.3-39.85,18.19-57.49,28.88-17.36,10.53-45,22.62-52.47,44.44-1.79,5.21-3.35,10.61-4.71,16.11-4.1,16.66-6.35,34.34-7.69,50.84-.66,8.16.08,19.88,1.35,31.79a3.18,3.18,0,0,0,3.2,2.85L1109,333.38a3.17,3.17,0,0,0,3.09-2.63c4.27-24.82,7.63-62.53,7.93-73.83C1120.38,242.4,1112.42,231.14,1110.64,223Zm-163.91,32c0,3.24-2.4,5.8-5.26,5.51-9.91-1-30.47-4-33.93-11-2-4.06-3.71-8.28-5.34-12.53a1.09,1.09,0,0,1-.1-.59.93.93,0,0,1,.29-.45c4.27-4.27,10-6.12,15.38-7.93,7.61-2.57,15.12-5.93,23-7.3A4.81,4.81,0,0,1,946,224a6.1,6.1,0,0,1,.33,1.92Zm157.71,9.51a4.39,4.39,0,0,1-4,4.68l-53.27.65a4.39,4.39,0,0,1-4.15-4.58v-.84a4.39,4.39,0,0,1,4-4.68l53.27-.65a4.39,4.39,0,0,1,4.15,4.58ZM1095,231.35l-140.6,1.71a3.17,3.17,0,0,1-3.2-2.87l-1.29-13.53a3.27,3.27,0,0,0-3.66-3.16c-5.26,1-19.42,5.46-31.08,9.32a3.17,3.17,0,0,1-2.91-5.55c18.82-14.11,52.73-37,81.93-43.37,37.36-8.12,92-6,105.8-5.3a3.17,3.17,0,0,1,3,3.44l-4.86,56.39A3.17,3.17,0,0,1,1095,231.35Z"/><path class="cls-1" d="M1544,217.45h22a18.16,18.16,0,0,0-18.16-18.16H1544Z"/><path class="cls-1" d="M1252.71,199.29h-1.59A18.08,18.08,0,0,0,1233,217.37v.08h19.67Z"/><rect class="cls-1" x="1254.38" y="199.29" width="288" height="18.16"/><rect class="cls-1" x="1276.05" y="217.45" width="7.67" height="4"/><rect class="cls-1" x="1517.88" y="217.45" width="7.67" height="4"/><path class="cls-1" d="M1253.88,280.62h-22A18.16,18.16,0,0,0,1250,298.78h3.84Z"/><path class="cls-1" d="M1545.21,298.78h1.59a18.08,18.08,0,0,0,18.08-18.08v-.08h-19.67Z"/><rect class="cls-1" x="1255.55" y="280.62" width="288" height="18.16"/><rect class="cls-1" x="1514.21" y="276.62" width="7.67" height="4" transform="translate(3036.09 557.25) rotate(180)"/><rect class="cls-1" x="1272.38" y="276.62" width="7.67" height="4" transform="translate(2552.43 557.25) rotate(180)"/></g></g></svg>